<svg width="12" height="14" viewBox="0 0 12 14" fill="none" xmlns="http://www.w3.org/2000/svg">
<path d="M4.00016 10.3333H8.00016M4.00016 8.33333H8.00016M10.6666 5H7.73324C7.35987 5 7.17337 4.99999 7.03076 4.92733C6.90532 4.86341 6.80341 4.76145 6.73949 4.63601C6.66683 4.4934 6.66683 4.3067 6.66683 3.93333V1M10.6668 10.8667V5.43599C10.6668 5.12699 10.667 4.97248 10.6336 4.82621C10.6041 4.6965 10.5554 4.57192 10.489 4.45666C10.414 4.32668 10.309 4.21331 10.099 3.98657L7.96696 1.68392C7.73363 1.43192 7.61686 1.30592 7.47803 1.21562C7.35497 1.13558 7.21926 1.07643 7.07693 1.04052C6.91635 1 6.74497 1 6.40154 1H3.46696C2.72022 1 2.34658 1 2.06136 1.14532C1.81048 1.27316 1.60665 1.47714 1.47882 1.72803C1.3335 2.01324 1.3335 2.3866 1.3335 3.13334V10.8667C1.3335 11.6134 1.3335 11.9868 1.47882 12.272C1.60665 12.5229 1.81048 12.7268 2.06136 12.8547C2.34658 13 2.72022 13 3.46696 13H8.53363C9.28036 13 9.65347 13 9.93869 12.8547C10.1896 12.7268 10.3938 12.5229 10.5216 12.272C10.667 11.9868 10.6668 11.6134 10.6668 10.8667Z" stroke="#0B0B0B" stroke-linecap="round" stroke-linejoin="round"/>
</svg>
